<?xml version="1.0" encoding="UTF-8"?>
<svg id="Layer_1" xmlns="http://www.w3.org/2000/svg" width="509.26" height="216.57" viewBox="0 0 509.26 216.57">
  <defs>
    <style>
      .cls-1 {
        fill: #fff;
      }
    </style>
  </defs>
  <g>
    <path class="cls-1" d="M9.72,205.72v-20.75h8.45c1.44,0,2.65.22,3.63.67s1.72,1.07,2.22,1.87c.51.8.76,1.73.76,2.8s-.23,1.93-.68,2.64c-.46.71-1.05,1.25-1.8,1.63-.74.38-1.55.6-2.42.68l.47-.33c.93.02,1.76.27,2.51.74.74.47,1.33,1.1,1.76,1.87.43.77.65,1.61.65,2.52,0,1.09-.27,2.06-.8,2.92-.53.86-1.31,1.53-2.33,2.01-1.02.49-2.26.73-3.72.73h-8.72ZM13.57,193.68h4c1.05,0,1.86-.24,2.43-.74.57-.5.86-1.19.86-2.07s-.28-1.56-.83-2.06c-.55-.5-1.39-.76-2.52-.76h-3.94v5.63ZM13.57,202.58h4.3c1.11,0,1.97-.26,2.58-.77.61-.51.92-1.24.92-2.19s-.32-1.7-.95-2.24-1.5-.82-2.61-.82h-4.24v6.02Z"/>
    <path class="cls-1" d="M35.6,206.08c-1.5,0-2.83-.32-3.97-.97-1.15-.64-2.05-1.53-2.7-2.67-.65-1.14-.98-2.46-.98-3.96s.32-2.88.96-4.06c.64-1.19,1.54-2.11,2.68-2.77,1.15-.66,2.48-.99,4-.99s2.75.32,3.86.95c1.11.63,1.97,1.49,2.59,2.58s.93,2.32.93,3.71v.65c0,.23-.02.48-.06.74h-12.18v-2.37h8.36c-.06-.95-.41-1.71-1.07-2.28-.65-.57-1.45-.86-2.4-.86-.71,0-1.36.16-1.96.47-.59.32-1.06.79-1.41,1.41-.35.62-.52,1.42-.52,2.39v.83c0,.83.17,1.55.51,2.17.33.61.79,1.08,1.36,1.41.57.32,1.23.49,1.96.49s1.38-.17,1.9-.51c.51-.33.91-.78,1.19-1.34h3.91c-.28.93-.74,1.78-1.38,2.53-.64.76-1.44,1.36-2.39,1.8s-2.02.65-3.2.65Z"/>
    <path class="cls-1" d="M48.85,205.72l-4.3-14.7h3.8l2.99,12.42-.95-.03,3.44-12.39h4.3l3.47,12.39-.98.03,2.99-12.42h3.82l-4.3,14.7h-4l-3.68-12.78h1.07l-3.68,12.78h-4Z"/>
    <path class="cls-1" d="M74.61,206.08c-1.11,0-2.06-.2-2.86-.6-.8-.4-1.41-.93-1.82-1.6s-.62-1.42-.62-2.23c0-1.54.55-2.73,1.66-3.57,1.11-.84,2.56-1.26,4.36-1.26.85,0,1.58.06,2.19.18.61.12,1.12.25,1.51.39v-.71c0-1.03-.29-1.78-.88-2.25-.58-.48-1.34-.71-2.27-.71-.65,0-1.24.13-1.75.4-.51.27-.84.74-.98,1.41h-3.65c.12-1.05.47-1.93,1.07-2.65.59-.72,1.35-1.27,2.27-1.65.92-.37,1.93-.56,3.04-.56,2.19,0,3.91.52,5.14,1.57,1.23,1.05,1.85,2.53,1.85,4.45v3.32c0,.75.04,1.31.13,1.66.09.36.23.59.43.68.2.1.46.15.8.15h.12v3.23h-.83c-1.05,0-1.92-.14-2.61-.41s-1.2-.82-1.51-1.63c-.49.69-1.15,1.26-1.96,1.72-.81.45-1.76.68-2.85.68ZM75.47,203.14c.63,0,1.17-.14,1.61-.43.45-.29.82-.68,1.11-1.19.3-.51.51-1.05.62-1.65-.41-.12-.89-.23-1.44-.34-.55-.11-1.09-.16-1.65-.16-.77,0-1.39.17-1.85.52-.46.35-.7.83-.7,1.44,0,.53.2.97.61,1.31.41.33.96.5,1.68.5Z"/>
    <path class="cls-1" d="M94.36,206.08c-1.5,0-2.83-.33-3.99-.99-1.16-.66-2.07-1.57-2.73-2.73-.66-1.15-.99-2.49-.99-3.99s.33-2.83.99-3.99c.66-1.16,1.57-2.07,2.73-2.73,1.16-.66,2.49-.99,3.99-.99,1.88,0,3.46.49,4.75,1.47,1.28.98,2.1,2.33,2.46,4.05h-4.06c-.18-.67-.55-1.21-1.13-1.61-.57-.41-1.26-.61-2.05-.61-.67,0-1.29.18-1.87.53-.57.36-1.03.86-1.36,1.51s-.5,1.44-.5,2.37.17,1.7.5,2.37.79,1.18,1.36,1.52c.57.35,1.2.52,1.87.52.79,0,1.47-.19,2.05-.58.57-.39.95-.93,1.13-1.65h4.06c-.34,1.66-1.15,2.99-2.44,4.01-1.29,1.01-2.88,1.51-4.76,1.51Z"/>
    <path class="cls-1" d="M104.82,205.72v-21.35h3.85v8.87c.47-.79,1.14-1.42,2-1.88.86-.46,1.82-.7,2.89-.7,1.82,0,3.23.58,4.22,1.73,1,1.16,1.5,2.84,1.5,5.06v8.27h-3.82v-7.92c0-1.26-.25-2.23-.76-2.89-.5-.66-1.29-.99-2.36-.99s-1.95.37-2.64,1.11c-.69.74-1.04,1.77-1.04,3.1v7.59h-3.85Z"/>
    <path class="cls-1" d="M128.25,206.08c-1.68,0-3.01-.58-3.99-1.74-.98-1.15-1.47-2.84-1.47-5.05v-8.27h3.86v7.92c0,1.26.24,2.23.73,2.89s1.19.99,2.12.99c1.05,0,1.86-.37,2.43-1.11.57-.74.86-1.77.86-3.1v-7.59h3.85v14.7h-3.85v-2.17c-.43.77-1.03,1.38-1.78,1.84-.75.45-1.67.68-2.76.68Z"/>
    <path class="cls-1" d="M140.4,205.72v-14.7h3.85v2.22c.47-.79,1.13-1.42,1.96-1.88s1.8-.7,2.91-.7c1.84,0,3.25.58,4.24,1.73.99,1.16,1.48,2.84,1.48,5.06v8.27h-3.85v-7.92c0-1.26-.25-2.23-.76-2.89s-1.3-.99-2.39-.99-1.91.37-2.58,1.11c-.67.74-1.01,1.77-1.01,3.1v7.59h-3.85Z"/>
    <path class="cls-1" d="M166.7,212.6c-1.26,0-2.47-.21-3.6-.62-1.14-.41-2.1-1.06-2.89-1.94-.79-.88-1.27-2.01-1.42-3.39h3.82c.18.81.64,1.45,1.38,1.93.74.47,1.61.71,2.62.71.75,0,1.44-.16,2.06-.48.62-.32,1.12-.78,1.5-1.41.37-.62.56-1.42.56-2.39v-1.84c-.3.48-.68.91-1.16,1.31s-1.03.72-1.67.96c-.64.25-1.38.37-2.21.37-1.4,0-2.66-.34-3.78-1.01-1.12-.67-2-1.58-2.64-2.73-.64-1.15-.96-2.43-.96-3.85s.32-2.73.96-3.87c.64-1.14,1.52-2.04,2.64-2.7,1.12-.66,2.38-.99,3.78-.99,1.13,0,2.12.23,2.99.7s1.55,1.03,2.05,1.7v-2.05h3.85v13.78c0,1.7-.36,3.13-1.08,4.28-.72,1.15-1.68,2.03-2.88,2.63-1.2.59-2.5.89-3.93.89ZM166.46,202.46c.85,0,1.59-.19,2.21-.56s1.11-.88,1.47-1.51c.36-.63.53-1.34.53-2.13,0-.83-.18-1.56-.53-2.19-.36-.63-.84-1.13-1.47-1.5-.62-.36-1.36-.55-2.21-.55s-1.56.18-2.19.55c-.63.37-1.13.87-1.5,1.5-.37.63-.55,1.35-.55,2.16s.18,1.51.55,2.15c.37.64.86,1.15,1.5,1.52.63.38,1.36.56,2.19.56Z"/>
    <path class="cls-1" d="M184.55,206.08c-1.94,0-3.53-.46-4.79-1.36-1.26-.91-1.96-2.13-2.12-3.65h3.94c.14.61.49,1.11,1.05,1.48.56.38,1.25.56,2.06.56s1.5-.16,1.94-.47c.45-.32.67-.7.67-1.16,0-.38-.16-.67-.47-.89-.32-.22-.88-.38-1.69-.48-.3-.04-.68-.1-1.16-.18s-.86-.15-1.15-.21c-.81-.16-1.55-.41-2.22-.77-.67-.36-1.21-.83-1.61-1.43-.41-.59-.61-1.33-.61-2.22,0-1.3.49-2.41,1.47-3.3.98-.9,2.41-1.35,4.28-1.35s3.37.41,4.48,1.24c1.11.83,1.73,2,1.87,3.5h-3.73c-.06-.59-.34-1.04-.85-1.34-.5-.3-1.08-.44-1.73-.44-.77,0-1.36.14-1.78.43s-.62.64-.62,1.05c0,.71.65,1.18,1.96,1.42.2.02.45.05.76.1.31.05.63.1.97.15.33.05.6.1.8.14.57.08,1.14.21,1.69.39.55.18,1.05.42,1.5.72.44.31.8.72,1.07,1.23s.4,1.15.4,1.9c0,.97-.25,1.82-.74,2.56s-1.21,1.32-2.15,1.73c-.94.41-2.09.62-3.45.62Z"/>
    <path class="cls-1" d="M193.74,200.26v-3.2h13.46v3.2h-13.46Z"/>
    <path class="cls-1" d="M225.93,206.08c-1.68,0-3.01-.58-3.99-1.74-.98-1.15-1.47-2.84-1.47-5.05v-8.27h3.86v7.92c0,1.26.24,2.23.73,2.89s1.19.99,2.12.99c1.05,0,1.86-.37,2.43-1.11.57-.74.86-1.77.86-3.1v-7.59h3.85v14.7h-3.85v-2.17c-.43.77-1.03,1.38-1.78,1.84-.75.45-1.67.68-2.76.68Z"/>
    <path class="cls-1" d="M238.09,205.72v-14.7h3.85v2.22c.47-.79,1.13-1.42,1.96-1.88s1.8-.7,2.91-.7c1.84,0,3.25.58,4.24,1.73.99,1.16,1.48,2.84,1.48,5.06v8.27h-3.85v-7.92c0-1.26-.25-2.23-.76-2.89s-1.3-.99-2.39-.99-1.91.37-2.58,1.11c-.67.74-1.01,1.77-1.01,3.1v7.59h-3.85Z"/>
    <path class="cls-1" d="M262.99,206.08c-1.38,0-2.62-.34-3.72-1.01s-1.96-1.6-2.59-2.77c-.63-1.18-.95-2.5-.95-3.96s.32-2.8.95-3.96c.63-1.16,1.5-2.07,2.59-2.73,1.1-.66,2.34-.99,3.72-.99,1.11,0,2.07.21,2.89.62s1.48.99,1.97,1.72v-8.63h3.85v21.35h-3.85v-2.1c-.46.65-1.07,1.23-1.85,1.72-.78.5-1.78.74-3.01.74ZM263.82,202.72c.81,0,1.53-.19,2.15-.56s1.11-.89,1.45-1.56.52-1.41.52-2.24-.17-1.6-.52-2.25-.83-1.16-1.45-1.54-1.34-.56-2.15-.56-1.5.19-2.13.56c-.63.38-1.13.88-1.48,1.52-.36.64-.53,1.39-.53,2.24s.18,1.61.53,2.27.85,1.18,1.48,1.56c.63.38,1.34.56,2.13.56Z"/>
    <path class="cls-1" d="M293.94,206.08c-.97,0-1.93-.14-2.87-.4-.95-.27-1.82-.69-2.61-1.27-.79-.58-1.45-1.34-1.97-2.26-.52-.92-.83-2.02-.93-3.3h3.56c.16,1.01.49,1.8.99,2.37.5.57,1.11.97,1.81,1.2.7.23,1.4.34,2.09.34.77,0,1.46-.12,2.06-.35s1.08-.58,1.42-1.02.52-.97.52-1.56-.17-1.16-.51-1.64c-.34-.49-1.06-.83-2.16-1.02l-3.53-.65c-1.7-.32-3.03-.99-3.99-2.03-.96-1.04-1.44-2.27-1.44-3.69,0-1.3.33-2.41.98-3.32.65-.91,1.53-1.61,2.64-2.1,1.11-.5,2.32-.74,3.65-.74s2.63.24,3.74.71c1.11.48,2.01,1.2,2.7,2.18s1.11,2.24,1.24,3.78h-3.62c-.12-.89-.38-1.58-.78-2.06-.41-.48-.89-.82-1.45-1.02-.56-.2-1.14-.3-1.74-.3-.55,0-1.13.09-1.72.27-.59.18-1.09.47-1.48.88-.4.41-.59.95-.59,1.64,0,.6.22,1.12.67,1.59.44.46,1.16.78,2.15.96l3.26.59c1.74.32,3.11.94,4.11,1.85,1,.92,1.5,2.26,1.5,4.02,0,1.05-.22,1.96-.67,2.74-.45.78-1.03,1.44-1.76,1.98-.73.54-1.55.96-2.46,1.23-.91.28-1.84.41-2.79.41Z"/>
    <path class="cls-1" d="M312.03,206.08c-1.5,0-2.83-.32-3.97-.97-1.15-.64-2.05-1.53-2.7-2.67-.65-1.14-.98-2.46-.98-3.96s.32-2.88.96-4.06c.64-1.19,1.54-2.11,2.68-2.77,1.15-.66,2.48-.99,4-.99s2.75.32,3.86.95c1.11.63,1.97,1.49,2.59,2.58s.93,2.32.93,3.71v.65c0,.23-.02.48-.06.74h-12.18v-2.37h8.36c-.06-.95-.41-1.71-1.07-2.28-.65-.57-1.45-.86-2.4-.86-.71,0-1.36.16-1.96.47-.59.32-1.06.79-1.41,1.41-.35.62-.52,1.42-.52,2.39v.83c0,.83.17,1.55.51,2.17.33.61.79,1.08,1.36,1.41.57.32,1.23.49,1.96.49s1.38-.17,1.9-.51c.51-.33.91-.78,1.19-1.34h3.91c-.28.93-.74,1.78-1.38,2.53-.64.76-1.44,1.36-2.39,1.8s-2.02.65-3.2.65Z"/>
    <path class="cls-1" d="M322.79,205.72v-14.7h3.85v2.25c.37-.75.86-1.34,1.45-1.76s1.28-.64,2.05-.64h1.87v3.44h-2.25c-.71,0-1.3.19-1.76.56-.46.38-.81.94-1.02,1.69-.22.75-.33,1.68-.33,2.79v6.37h-3.85Z"/>
    <path class="cls-1" d="M339.66,205.72l-5.43-14.7h4.06l3.71,11.06,3.68-11.06h4.03l-5.4,14.7h-4.65Z"/>
    <path class="cls-1" d="M352.74,205.72v-14.7h3.85v14.7h-3.85ZM352.82,188.58v-3.73h3.73v3.73h-3.73Z"/>
    <path class="cls-1" d="M367.5,206.08c-1.5,0-2.83-.33-3.99-.99-1.16-.66-2.07-1.57-2.73-2.73-.66-1.15-.99-2.49-.99-3.99s.33-2.83.99-3.99c.66-1.16,1.57-2.07,2.73-2.73,1.16-.66,2.49-.99,3.99-.99,1.88,0,3.46.49,4.75,1.47,1.28.98,2.1,2.33,2.46,4.05h-4.06c-.18-.67-.55-1.21-1.13-1.61-.57-.41-1.26-.61-2.05-.61-.67,0-1.29.18-1.87.53-.57.36-1.03.86-1.36,1.51s-.5,1.44-.5,2.37.17,1.7.5,2.37.79,1.18,1.36,1.52c.57.35,1.2.52,1.87.52.79,0,1.47-.19,2.05-.58.57-.39.95-.93,1.13-1.65h4.06c-.34,1.66-1.15,2.99-2.44,4.01-1.29,1.01-2.88,1.51-4.76,1.51Z"/>
    <path class="cls-1" d="M385.11,206.08c-1.5,0-2.83-.32-3.97-.97-1.15-.64-2.05-1.53-2.7-2.67-.65-1.14-.98-2.46-.98-3.96s.32-2.88.96-4.06c.64-1.19,1.54-2.11,2.68-2.77,1.15-.66,2.48-.99,4-.99s2.75.32,3.86.95c1.11.63,1.97,1.49,2.59,2.58.62,1.09.93,2.32.93,3.71v.65c0,.23-.02.48-.06.74h-12.18v-2.37h8.36c-.06-.95-.41-1.71-1.07-2.28-.65-.57-1.45-.86-2.4-.86-.71,0-1.36.16-1.96.47-.59.32-1.06.79-1.41,1.41-.35.62-.52,1.42-.52,2.39v.83c0,.83.17,1.55.51,2.17.33.61.79,1.08,1.36,1.41.57.32,1.23.49,1.96.49s1.38-.17,1.9-.51c.51-.33.91-.78,1.19-1.34h3.91c-.28.93-.74,1.78-1.38,2.53-.64.76-1.44,1.36-2.39,1.8s-2.02.65-3.2.65Z"/>
    <path class="cls-1" d="M416.65,206.08c-2.25,0-4.18-.44-5.77-1.32-1.59-.88-2.81-2.11-3.65-3.71-.84-1.59-1.26-3.44-1.26-5.56s.42-4.02,1.26-5.66c.84-1.64,2.03-2.92,3.59-3.84,1.55-.92,3.4-1.38,5.53-1.38,2.45,0,4.48.59,6.08,1.75,1.6,1.17,2.64,2.78,3.11,4.83h-4.33c-.32-.95-.88-1.69-1.69-2.22-.81-.53-1.87-.8-3.17-.8s-2.53.3-3.48.89c-.96.59-1.7,1.44-2.21,2.53-.51,1.1-.77,2.41-.77,3.93s.27,2.78.8,3.84c.53,1.06,1.3,1.87,2.3,2.44,1,.58,2.22.86,3.66.86,1.72,0,3.08-.49,4.08-1.45,1-.97,1.51-2.31,1.53-4.03h-5.78v-2.9h9.67v1.66c0,2.23-.41,4.1-1.23,5.6s-1.94,2.63-3.36,3.39c-1.42.76-3.05,1.14-4.89,1.14Z"/>
    <path class="cls-1" d="M429.43,205.72v-14.7h3.85v1.81c.47-.67,1.1-1.2,1.87-1.59s1.64-.58,2.61-.58c1.13,0,2.09.22,2.9.67.81.44,1.44,1.09,1.9,1.94.55-.81,1.28-1.45,2.17-1.91.89-.46,1.88-.7,2.96-.7,1.92,0,3.39.58,4.42,1.73,1.03,1.16,1.54,2.84,1.54,5.06v8.27h-3.82v-7.92c0-1.26-.24-2.23-.73-2.89s-1.24-.99-2.27-.99-1.82.37-2.43,1.11c-.61.74-.92,1.77-.92,3.1v7.59h-3.82v-7.92c0-1.26-.25-2.23-.76-2.89-.51-.66-1.26-.99-2.27-.99s-1.79.37-2.42,1.11c-.62.74-.93,1.77-.93,3.1v7.59h-3.85Z"/>
    <path class="cls-1" d="M466.22,206.08c-1.11,0-2.07-.21-2.89-.62s-1.49-.99-2-1.72v1.98h-3.85v-21.35h3.85v8.75c.47-.65,1.1-1.23,1.88-1.72.78-.5,1.78-.74,3.01-.74,1.38,0,2.62.34,3.71,1.01,1.09.67,1.95,1.59,2.58,2.76.63,1.16.95,2.49.95,3.97s-.32,2.78-.95,3.94c-.63,1.17-1.49,2.08-2.58,2.74-1.09.66-2.32.99-3.71.99ZM465.36,202.72c.81,0,1.53-.19,2.17-.56.63-.38,1.13-.89,1.48-1.54s.53-1.39.53-2.22-.18-1.61-.53-2.27-.85-1.18-1.48-1.56c-.63-.38-1.35-.56-2.17-.56s-1.53.19-2.15.56-1.11.89-1.45,1.54c-.35.65-.52,1.4-.52,2.25s.17,1.6.52,2.26c.34.65.83,1.16,1.45,1.54s1.34.56,2.15.56Z"/>
    <path class="cls-1" d="M476.96,205.72v-20.75h3.85v20.75h-3.85ZM480.31,196.68v-3.11h10.44v3.11h-10.44ZM490.09,205.72v-20.75h3.86v20.75h-3.86Z"/>
  </g>
  <polygon class="cls-1" points="64.64 104.54 43.23 104.54 9.72 171.01 29.45 171.01 36.25 156.58 36.27 156.58 53.94 119.15 71.45 156.58 71.53 156.58 78.33 171.01 98.06 171.01 64.64 104.54"/>
  <path class="cls-1" d="M203.91,106.74v12.06c0,1.22-.99,2.21-2.21,2.21h-50.32c-1.22,0-2.21.99-2.21,2.21v4.8c0,1.22.99,2.21,2.21,2.21h44.26c1.22,0,2.21.99,2.21,2.21v11.13c0,1.22-.99,2.21-2.21,2.21h-44.26c-1.22,0-2.21.99-2.21,2.21v4.34c0,1.22.99,2.21,2.21,2.21h50.32c1.22,0,2.21.99,2.21,2.21v12.06c0,1.22-.99,2.21-2.21,2.21h-67.92c-1.22,0-2.21-.99-2.21-2.21v-62.06c0-1.22.99-2.21,2.21-2.21h67.92c1.22,0,2.21.99,2.21,2.21Z"/>
  <path class="cls-1" d="M271.41,121.29c-2.36,0-4.3.46-5.82,1.4-1.52.93-2.72,2.16-3.58,3.68-.87,1.52-1.47,3.27-1.81,5.26-.34,1.99-.51,4.03-.51,6.14s.17,4.16.51,6.15c.34,1.99.95,3.76,1.81,5.31.87,1.55,2.06,2.79,3.58,3.72,1.52.93,3.46,1.4,5.82,1.4h24.58c2.92,0,5.29-.74,7.12-2.23,1.83-1.49,2.96-3.32,3.4-5.49h-31.93v-12.29h50.64v36.68h-14.76l-.05-4.84c-1.8,1.06-3.66,1.89-5.59,2.51-1.92.62-3.83,1.1-5.73,1.44-1.89.34-3.71.57-5.45.7-1.74.13-3.35.19-4.84.19h-12.57c-1.99,0-4.24-.11-6.75-.33s-5.07-.71-7.68-1.49c-2.61-.78-5.15-1.89-7.63-3.35-2.48-1.46-4.69-3.41-6.61-5.86-1.92-2.45-3.48-5.49-4.65-9.12-1.18-3.63-1.77-7.99-1.77-13.08s.59-9.45,1.77-13.08c1.18-3.63,2.73-6.67,4.65-9.12,1.92-2.45,4.13-4.41,6.61-5.86,2.48-1.46,5.03-2.58,7.63-3.35,2.61-.78,5.17-1.27,7.68-1.49,2.51-.22,4.76-.33,6.75-.33h14.43c1.8,0,3.83.09,6.1.28,2.27.19,4.56.58,6.89,1.16,2.33.59,4.65,1.44,6.98,2.56s4.47,2.62,6.42,4.51c1.95,1.89,3.64,4.22,5.07,6.98,1.43,2.76,2.45,6.07,3.07,9.92h-18.9c-.5-2.67-1.61-4.78-3.35-6.33-1.74-1.55-4.19-2.33-7.35-2.33h-24.2Z"/>
  <path class="cls-1" d="M364.31,104.54h17.59v66.47h-17.59v-66.47Z"/>
  <path class="cls-1" d="M436.83,125.02c0,1.37.82,2.36,2.47,2.98,1.64.62,3.8,1.06,6.47,1.3,2.67.25,5.71.4,9.12.47,3.41.06,6.92.23,10.52.51,3.6.28,7.11.76,10.52,1.44,3.41.68,6.45,1.78,9.12,3.3,2.67,1.52,4.82,3.52,6.47,6.01,1.64,2.48,2.47,5.68,2.47,9.59,0,1.24-.11,2.61-.33,4.1-.22,1.49-.7,3-1.44,4.51-.74,1.52-1.81,3-3.21,4.42-1.4,1.43-3.26,2.69-5.59,3.77-2.33,1.09-5.2,1.96-8.61,2.61-3.41.65-7.48.98-12.2.98h-11.92c-4.72,0-8.78-.4-12.2-1.21-3.41-.81-6.28-1.85-8.61-3.12-2.33-1.27-4.19-2.75-5.59-4.42-1.4-1.68-2.47-3.37-3.21-5.07-.74-1.71-1.23-3.38-1.44-5.03-.22-1.64-.33-3.09-.33-4.33h17.59c0,.5.11,1.12.33,1.86.22.75.64,1.46,1.26,2.14.62.68,1.54,1.27,2.75,1.77,1.21.5,2.78.74,4.7.74h24.2c2.48,0,4.14-.37,4.98-1.12.84-.75,1.26-1.61,1.26-2.61,0-1.49-.82-2.58-2.47-3.26-1.65-.68-3.8-1.15-6.47-1.4-2.67-.25-5.72-.39-9.17-.42-3.44-.03-6.95-.19-10.52-.46-3.57-.28-7.08-.75-10.52-1.4-3.44-.65-6.5-1.71-9.17-3.17-2.67-1.46-4.83-3.43-6.47-5.91-1.65-2.48-2.47-5.68-2.47-9.59,0-1.92.29-4.06.88-6.42.59-2.36,1.96-4.58,4.1-6.66,2.14-2.08,5.31-3.83,9.5-5.26,4.19-1.43,9.85-2.14,16.99-2.14h11.82c4.78,0,8.87.4,12.29,1.21,3.41.81,6.28,1.86,8.61,3.17,2.33,1.3,4.19,2.78,5.59,4.42,1.4,1.65,2.47,3.34,3.21,5.07s1.22,3.41,1.44,5.03c.22,1.61.33,3.07.33,4.38h-17.69c0-.5-.09-1.12-.28-1.86-.19-.75-.6-1.46-1.26-2.14-.65-.68-1.57-1.27-2.75-1.77-1.18-.5-2.76-.74-4.75-.74h-24.2c-2.55,0-4.21.36-4.98,1.07-.78.72-1.16,1.6-1.16,2.65Z"/>
  <path class="cls-1" d="M252.58,16.13c35.58,0,65.19,23.56,71.61,54.71h141.18C413.35,30.5,337.33,5.04,252.58,5.04S91.81,30.5,39.8,70.83h141.18c6.41-31.15,36.03-54.71,71.61-54.71Z"/>
</svg>