<?xml version="1.0" encoding="UTF-8"?>
<svg id="Layer_1" xmlns="http://www.w3.org/2000/svg" width="509.26" height="182.48" viewBox="0 0 509.26 182.48">
  <defs>
    <style>
      .cls-1 {
        fill: #0b1023;
      }
    </style>
  </defs>
  <polygon class="cls-1" points="68.42 105.54 47.01 105.54 13.49 172.01 33.23 172.01 40.02 157.58 40.04 157.58 57.71 120.15 75.22 157.58 75.31 157.58 82.1 172.01 101.84 172.01 68.42 105.54"/>
  <path class="cls-1" d="M207.69,107.74v12.06c0,1.22-.99,2.21-2.21,2.21h-50.32c-1.22,0-2.21.99-2.21,2.21v4.8c0,1.22.99,2.21,2.21,2.21h44.26c1.22,0,2.21.99,2.21,2.21v11.13c0,1.22-.99,2.21-2.21,2.21h-44.26c-1.22,0-2.21.99-2.21,2.21v4.34c0,1.22.99,2.21,2.21,2.21h50.32c1.22,0,2.21.99,2.21,2.21v12.06c0,1.22-.99,2.21-2.21,2.21h-67.92c-1.22,0-2.21-.99-2.21-2.21v-62.06c0-1.22.99-2.21,2.21-2.21h67.92c1.22,0,2.21.99,2.21,2.21Z"/>
  <path class="cls-1" d="M275.18,122.29c-2.36,0-4.3.46-5.82,1.4-1.52.93-2.72,2.16-3.58,3.68-.87,1.52-1.47,3.27-1.81,5.26-.34,1.99-.51,4.03-.51,6.14s.17,4.16.51,6.15c.34,1.99.95,3.76,1.81,5.31.87,1.55,2.06,2.79,3.58,3.72,1.52.93,3.46,1.4,5.82,1.4h24.58c2.92,0,5.29-.74,7.12-2.23,1.83-1.49,2.96-3.32,3.4-5.49h-31.93v-12.29h50.64v36.68h-14.76l-.05-4.84c-1.8,1.06-3.66,1.89-5.59,2.51-1.92.62-3.83,1.1-5.73,1.44-1.89.34-3.71.57-5.45.7-1.74.13-3.35.19-4.84.19h-12.57c-1.99,0-4.24-.11-6.75-.33s-5.07-.71-7.68-1.49c-2.61-.78-5.15-1.89-7.63-3.35-2.48-1.46-4.69-3.41-6.61-5.86-1.92-2.45-3.48-5.49-4.65-9.12-1.18-3.63-1.77-7.99-1.77-13.08s.59-9.45,1.77-13.08c1.18-3.63,2.73-6.67,4.65-9.12,1.92-2.45,4.13-4.41,6.61-5.86,2.48-1.46,5.03-2.58,7.63-3.35,2.61-.78,5.17-1.27,7.68-1.49,2.51-.22,4.76-.33,6.75-.33h14.43c1.8,0,3.83.09,6.1.28,2.27.19,4.56.58,6.89,1.16,2.33.59,4.65,1.44,6.98,2.56,2.33,1.12,4.47,2.62,6.42,4.51,1.95,1.89,3.64,4.22,5.07,6.98,1.43,2.76,2.45,6.07,3.07,9.92h-18.9c-.5-2.67-1.61-4.78-3.35-6.33-1.74-1.55-4.19-2.33-7.35-2.33h-24.2Z"/>
  <path class="cls-1" d="M368.09,105.54h17.59v66.47h-17.59v-66.47Z"/>
  <path class="cls-1" d="M440.61,126.02c0,1.37.82,2.36,2.47,2.98,1.64.62,3.8,1.06,6.47,1.3,2.67.25,5.71.4,9.12.47,3.41.06,6.92.23,10.52.51,3.6.28,7.11.76,10.52,1.44,3.41.68,6.45,1.78,9.12,3.3,2.67,1.52,4.82,3.52,6.47,6.01,1.64,2.48,2.47,5.68,2.47,9.59,0,1.24-.11,2.61-.33,4.1-.22,1.49-.7,3-1.44,4.51-.74,1.52-1.81,3-3.21,4.42-1.4,1.43-3.26,2.69-5.59,3.77-2.33,1.09-5.2,1.96-8.61,2.61-3.41.65-7.48.98-12.2.98h-11.92c-4.72,0-8.78-.4-12.2-1.21-3.41-.81-6.28-1.85-8.61-3.12-2.33-1.27-4.19-2.75-5.59-4.42-1.4-1.68-2.47-3.37-3.21-5.07-.74-1.71-1.23-3.38-1.44-5.03-.22-1.64-.33-3.09-.33-4.33h17.59c0,.5.11,1.12.33,1.86.22.75.64,1.46,1.26,2.14.62.68,1.54,1.27,2.75,1.77,1.21.5,2.78.74,4.7.74h24.2c2.48,0,4.14-.37,4.98-1.12.84-.75,1.26-1.61,1.26-2.61,0-1.49-.82-2.58-2.47-3.26-1.65-.68-3.8-1.15-6.47-1.4-2.67-.25-5.72-.39-9.17-.42-3.44-.03-6.95-.19-10.52-.46-3.57-.28-7.08-.75-10.52-1.4-3.44-.65-6.5-1.71-9.17-3.17-2.67-1.46-4.83-3.43-6.47-5.91-1.65-2.48-2.47-5.68-2.47-9.59,0-1.92.29-4.06.88-6.42.59-2.36,1.96-4.58,4.1-6.66,2.14-2.08,5.31-3.83,9.5-5.26,4.19-1.43,9.85-2.14,16.99-2.14h11.82c4.78,0,8.87.4,12.29,1.21,3.41.81,6.28,1.86,8.61,3.17,2.33,1.3,4.19,2.78,5.59,4.42,1.4,1.65,2.47,3.34,3.21,5.07s1.22,3.41,1.44,5.03c.22,1.61.33,3.07.33,4.38h-17.69c0-.5-.09-1.12-.28-1.86-.19-.75-.6-1.46-1.26-2.14-.65-.68-1.57-1.27-2.75-1.77-1.18-.5-2.76-.74-4.75-.74h-24.2c-2.55,0-4.21.36-4.98,1.07-.78.72-1.16,1.6-1.16,2.65Z"/>
  <path class="cls-1" d="M256.36,17.13c35.58,0,65.19,23.56,71.61,54.71h141.18C417.13,31.5,341.1,6.04,256.36,6.04S95.59,31.5,43.57,71.83h141.18c6.41-31.15,36.03-54.71,71.61-54.71Z"/>
</svg>